ffmpeg version 3.4.8-0ubuntu0.2 Copyright (c) 2000-2020 the FFmpeg developers
  built with gcc 7 (Ubuntu 7.5.0-3ubuntu1~18.04)
  configuration: --prefix=/usr --extra-version=0ubuntu0.2 --toolchain=hardened --libdir=/usr/lib/x86_64-linux-gnu --incdir=/usr/include/x86_64-linux-gnu --enable-gpl --disable-stripping --enable-avresample --enable-avisynth --enable-gnutls --enable-ladspa --enable-libass --enable-libbluray --enable-libbs2b --enable-libcaca --enable-libcdio --enable-libflite --enable-libfontconfig --enable-libfreetype --enable-libfribidi --enable-libgme --enable-libgsm --enable-libmp3lame --enable-libmysofa --enable-libopenjpeg --enable-libopenmpt --enable-libopus --enable-libpulse --enable-librubberband --enable-librsvg --enable-libshine --enable-libsnappy --enable-libsoxr --enable-libspeex --enable-libssh --enable-libtheora --enable-libtwolame --enable-libvorbis --enable-libvpx --enable-libwavpack --enable-libwebp --enable-libx265 --enable-libxml2 --enable-libxvid --enable-libzmq --enable-libzvbi --enable-omx --enable-openal --enable-opengl --enable-sdl2 --enable-libdc1394 --enable-libdrm --enable-libiec61883 --enable-chromaprint --enable-frei0r --enable-libopencv --enable-libx264 --enable-shared
  libavutil      55. 78.100 / 55. 78.100
  libavcodec     57.107.100 / 57.107.100
  libavformat    57. 83.100 / 57. 83.100
  libavdevice    57. 10.100 / 57. 10.100
  libavfilter     6.107.100 /  6.107.100
  libavresample   3.  7.  0 /  3.  7.  0
  libswscale      4.  8.100 /  4.  8.100
  libswresample   2.  9.100 /  2.  9.100
  libpostproc    54.  7.100 / 54.  7.100
[rawvideo @ 0x564202c5da20] Estimating duration from bitrate, this may be inaccurate
Input #0, rawvideo, from '../../SVC-Encoder-20220109T061506Z-001/SVC-Encoder/Dataset/RollerCoaster/ERP_8x8/tile_yuv/Tile_34_480x240.yuv':
  Duration: 00:00:10.00, start: 0.000000, bitrate: 41472 kb/s
    Stream #0:0: Video: rawvideo (I420 / 0x30323449), yuv420p, 480x240, 41472 kb/s, 30 tbr, 30 tbn, 30 tbc
Stream mapping:
  Stream #0:0 -> #0:0 (rawvideo (native) -> h264 (libx264))
Press [q] to stop, [?] for help
[libx264 @ 0x564202c6ac60] using cpu capabilities: MMX2 SSE2Fast LZCNT SSSE3 SSE4.2 AVX
[libx264 @ 0x564202c6ac60] profile High, level 2.1
Output #0, rawvideo, to 'RollerCoaster_Tile_34_480x240_x264_QP_24.h264':
  Metadata:
    encoder         : Lavf57.83.100
    Stream #0:0: Video: h264 (libx264), yuv420p, 480x240, q=-1--1, 30 fps, 30 tbn, 30 tbc
    Metadata:
      encoder         : Lavc57.107.100 libx264
    Side data:
      cpb: bitrate max/min/avg: 0/0/0 buffer size: 0 vbv_delay: -1
frame=  154 fps=0.0 q=30.0 PSNR=Y:nan U:nan V:nan *:nan size=     138kB time=00:00:03.70 bitrate= 305.9kbits/s speed=7.39x    frame=  300 fps=270 q=30.0 LPSNR=Y:inf U:inf V:inf *:inf size=     359kB time=00:00:09.93 bitrate= 295.7kbits/s speed=8.93x    
video:359kB audio:0kB subtitle:0kB other streams:0kB global headers:0kB muxing overhead: 0.000000%
[libx264 @ 0x564202c6ac60] frame I:2     Avg QP:22.06  size: 15468  PSNR Mean Y:45.11 U:50.08 V:51.85 Avg:46.33 Global:46.32
[libx264 @ 0x564202c6ac60] frame P:76    Avg QP:23.56  size:  3447  PSNR Mean Y:42.01 U:49.41 V:51.06 Avg:43.45 Global:43.37
[libx264 @ 0x564202c6ac60] frame B:222   Avg QP:29.46  size:   335  PSNR Mean Y:41.19 U:49.07 V:50.81 Avg:42.66 Global:42.61
[libx264 @ 0x564202c6ac60] consecutive B-frames:  1.3%  0.0%  0.0% 98.7%
[libx264 @ 0x564202c6ac60] mb I  I16..4: 25.0% 56.9% 18.1%
[libx264 @ 0x564202c6ac60] mb P  I16..4:  1.1%  0.4%  0.0%  P16..4: 37.1% 20.2% 10.9%  0.0%  0.0%    skip:30.2%
[libx264 @ 0x564202c6ac60] mb B  I16..4:  0.0%  0.0%  0.0%  B16..8: 36.2%  4.4%  0.3%  direct: 0.2%  skip:58.8%  L0:39.2% L1:48.6% BI:12.2%
[libx264 @ 0x564202c6ac60] 8x8 transform intra:45.4% inter:67.0%
[libx264 @ 0x564202c6ac60] coded y,uvDC,uvAC intra: 44.0% 47.9% 21.5% inter: 9.9% 6.1% 0.0%
[libx264 @ 0x564202c6ac60] i16 v,h,dc,p:  5% 55% 21% 19%
[libx264 @ 0x564202c6ac60] i8 v,h,dc,ddl,ddr,vr,hd,vl,hu:  3% 19% 27%  3% 10%  4% 15%  8% 12%
[libx264 @ 0x564202c6ac60] i4 v,h,dc,ddl,ddr,vr,hd,vl,hu:  7% 16% 16%  4% 14%  6% 17%  9% 11%
[libx264 @ 0x564202c6ac60] i8c dc,h,v,p: 56% 23% 13%  8%
[libx264 @ 0x564202c6ac60] Weighted P-Frames: Y:1.3% UV:0.0%
[libx264 @ 0x564202c6ac60] ref P L0: 61.8% 20.7% 13.9%  3.5%  0.0%
[libx264 @ 0x564202c6ac60] ref B L0: 89.5%  9.6%  0.9%
[libx264 @ 0x564202c6ac60] ref B L1: 90.7%  9.3%
[libx264 @ 0x564202c6ac60] PSNR Mean Y:41.425 U:49.162 V:50.877 Avg:42.888 Global:42.809 kb/s:293.74
